{"title":"The War 1994 480p HDRip XviD titler","uid":10227142,"size":1503403299,"categoryP":"video","categoryS":"movies","magnet":"?xt=urn:btih:32b68d6e6d5fce342756e7e0090f0b158ae232e2&amp;dn=The+War+1994+480p+HDRip+XviD+titler&amp;tr=udp%3A%2F%2Ftracker.openbittorrent.com%3A80&amp;tr=udp%3A%2F%2Fopen.demonii.com%3A1337&amp;tr=udp%3A%2F%2Ftracker.coppersurfer.tk%3A6969&amp;tr=udp%3A%2F%2Fexodus.desync.com%3A6969","seeders":0,"leechers":2,"uploader":"movieZ.freak","files":4,"time":1401101569,"description":"SOURCE: The War 1994 720p HDTV x264 AC3\n\n\n\n &lt;a href=&quot;\nhttp://www.imdb.com/title/tt0111667/&quot; rel=&quot;nofollow&quot; target=&quot;_NEW&quot;&gt;\nhttp://www.imdb.com/title/tt0111667/&lt;/a&gt;\n\n\n &lt;a href=&quot;\nhttp://www.rottentomatoes.com/m/the-war1994/&quot; rel=&quot;nofollow&quot; target=&quot;_NEW&quot;&gt;\nhttp://www.rottentomatoes.com/m/the-war1994/&lt;/a&gt;\n\n\n &lt;a href=&quot;\nhttp://en.wikipedia.org/wiki/The_War_%281994_film%29&quot; rel=&quot;nofollow&quot; target=&quot;_NEW&quot;&gt;\nhttp://en.wikipedia.org/wiki/The_War_%281994_film%29&lt;/a&gt;\n\n\n\n\n- SAMPLE: Yes\n\n\n- SUBTITLE: English\n\n\n- LANGUAGE / AUDIO: English\n\n\n\n\nSCREENSHOTS:\n-------------------    &lt;a href=&quot;\nhttp://someimage.com/1WP1&quot; rel=&quot;nofollow&quot; target=&quot;_NEW&quot;&gt;\nhttp://someimage.com/1WP1&lt;/a&gt;\n\n\n\n\nDIRECTOR: Jon Avnet\n\n\n\n\nCAST: Elijah Wood, Kevin Costner, Mare Winningham, Christine Baranski, Lexi Randall, Lucas Black, Bruce A. Young,...\n\n\n\nPLOT:\n-----------\nJon Avnet's The War is set in the rural south and brimming with lessons on social consciousness, much like his previous effort, Fried Green Tomatoes (1991). During the summer of 1970 in backwoods Mississippi, Stephen Simmons (Kevin Costner) is struggling to be a breadwinner for his family while still suffering post-traumatic stress disorder from his service in the Vietnam War. His wife Lois (Mare Winningham) provides most of the family income. Stephen gets a job in a mine and saves a friend who has been injured, helping him erase his guilt over abandoning another friend during a firefight in Vietnam. Meanwhile, the Simmons children, Stu (Elijah Wood) and Lidia (Lexi Randall) are feuding with an even poorer family of neighbors, the Lipnickis, over access to a tree fort that Stu and Lidia built. Mr. Lipnicki (Raynor Scheine) is drunken and abusive and helps escalate the disagreement into a major battle for the fort.\n\n\n************************************\n\n- Duration: 2h 5mn\n\n- Bit rate: 1449 Kbps\n\n- Res: 854 x 480\n\n- AR: 16:9\n\n- FPS: 23.976 fps\n\n- Audio: AC3, 2 channels, 128 Kbps\n\n************************************\n\n\nGeneral\n-------------\nFormat : AVI\nFormat/Info : Audio Video Interleave\nFile size : 1.39 GiB\nDuration : 2h 5mn\nOverall bit rate : 1586 Kbps\nWriting library : VirtualDub build 35491\n\n\nVideo\n------------\nFormat : MPEG-4 Visual\nFormat profile : Advanced Simple@L5\nFormat settings, BVOP : 2\nFormat settings, QPel : No\nFormat settings, GMC : No warppoints\nFormat settings, Matrix : Default (H.263)\nCodec ID : XVID\nCodec ID/Hint : XviD\nDuration : 2h 5mn\nBit rate : 1449 Kbps\nWidth : 854 pixels\nHeight : 480 pixels\nDisplay aspect ratio : 16:9\nFrame rate : 23.976 fps\nColor space : YUV\nChroma subsampling : 4:2:0\nBit depth : 8 bits\nScan type : Progressive\nCompression mode : Lossy\nBits/(Pixel*Frame) : 0.147\nStream size : 1.27 GiB (91%)\nWriting library : XviD 65\n\n\nAudio\n----------\nFormat : AC-3\nFormat/Info : Audio Coding 3\nMode extension : CM (complete main)\nFormat settings, Endianness : Big\nCodec ID : 2000\nDuration : 2h 5mn\nBit rate mode : Constant\nBit rate : 128 Kbps\nChannel(s) : 2 channels\nChannel positions : Front: L R\nSampling rate : 48.0 KHz\nBit depth : 16 bits\nCompression mode : Lossy\nStream size : 115 MiB (8%)\nAlignment : Aligned on interleaves\nInterleave, duration : 42 ms (1.00 video frame)\nInterleave, preload duration : 512 ms","torrent":{"xt":"urn:btih:32b68d6e6d5fce342756e7e0090f0b158ae232e2","amp;dn":"The+War+1994+480p+HDRip+XviD+titler","amp;tr":["udp%3A%2F%2Ftracker.openbittorrent.com%3A80","udp%3A%2F%2Fopen.demonii.com%3A1337","udp%3A%2F%2Ftracker.coppersurfer.tk%3A6969","udp%3A%2F%2Fexodus.desync.com%3A6969"],"infoHash":"32b68d6e6d5fce342756e7e0090f0b158ae232e2","infoHashBuffer":{"type":"Buffer","data":[50,182,141,110,109,95,206,52,39,86,231,224,9,15,11,21,138,226,50,226]},"announce":[],"urlList":[]}}